<svg version="1.1" id="Layer_1" xmlns="http://www.w3.org/2000/svg" xmlns:xlink="http://www.w3.org/1999/xlink" x="0px" y="0px"
	 width="100%" viewBox="120 120 904 904" enable-background="new 0 0 1024 1024" xml:space="preserve">
<path fill="#000000" opacity="1.000000" stroke="none" 
	d="
M394.179565,776.930420 
	C348.431702,755.950378 312.320404,724.345886 284.481598,682.996887 
	C265.276245,654.471191 251.946091,623.451294 244.245743,589.999207 
	C239.482452,569.306274 237.983200,548.242981 237.969543,527.065308 
	C237.966782,522.769897 237.169006,518.926208 234.940491,515.194275 
	C222.054199,493.614868 216.399612,470.129852 216.634216,445.087891 
	C216.698105,438.267761 216.808792,431.447723 216.143143,424.615723 
	C215.472137,417.728821 218.658707,412.731628 224.273773,410.611572 
	C230.168762,408.385803 234.902985,410.037750 239.760620,415.373352 
	C255.786865,432.976501 271.194855,451.233826 292.613281,462.921631 
	C308.426758,471.550903 325.224762,476.438416 343.173218,476.637909 
	C374.165497,476.982361 405.162689,476.893524 436.157898,476.952301 
	C442.462280,476.964264 443.815521,475.396088 443.831421,468.146881 
	C443.933990,421.319702 444.448883,374.487854 443.953339,327.666779 
	C443.605743,294.822968 454.319336,266.615784 476.270630,242.585983 
	C500.662994,215.883942 531.128540,203.548691 567.161255,206.895767 
	C597.429749,209.707397 621.660706,224.236969 640.262329,248.188919 
	C644.355530,253.459473 648.852722,258.344940 653.381592,263.240448 
	C664.279419,275.020599 679.226196,278.553406 693.484131,283.509003 
	C706.535522,288.045258 719.658508,292.375153 732.735840,296.837433 
	C736.426636,298.096802 739.731750,299.954834 741.893982,303.399872 
	C745.685303,309.440491 744.040527,316.930054 737.973511,320.887299 
	C733.265686,323.958069 727.764343,324.843445 722.490479,326.313171 
	C701.968384,332.032135 681.489136,337.918488 660.882629,343.317474 
	C635.631531,349.933319 628.169678,370.040802 631.927124,392.145508 
	C634.713013,408.534546 641.801392,423.157837 651.898926,436.327759 
	C664.569641,452.853790 678.282166,468.565613 690.397766,485.525208 
	C709.392944,512.115112 720.812622,541.486084 723.424255,574.226074 
	C725.803955,604.057983 722.113770,633.041077 712.253723,661.264099 
	C711.545410,663.291504 710.668396,665.259888 709.509277,668.156677 
	C727.676514,644.120117 738.649353,617.943726 744.698242,589.528503 
	C747.972534,574.147644 749.364502,558.626892 748.970337,542.923462 
	C748.937073,541.598633 749.062195,540.256958 749.245728,538.941589 
	C750.450256,530.311035 755.487488,525.380737 762.709167,525.714294 
	C769.755493,526.039795 775.139954,532.279602 775.304688,540.566101 
	C775.666931,558.791382 773.725708,576.812073 769.790283,594.584167 
	C757.081604,651.976013 728.359131,699.586426 683.532837,737.846008 
	C643.804504,771.754272 597.806763,791.336792 546.711121,798.911316 
	C496.524261,806.351135 447.811707,799.414612 400.957458,779.832336 
	C398.806824,778.933533 396.667023,778.008850 394.179565,776.930420 
M632.482361,710.998169 
	C635.404785,707.151794 638.208008,703.206909 641.283997,699.487549 
	C644.199646,695.962036 643.684265,693.894653 639.747559,691.271179 
	C606.478394,669.100342 573.338684,646.734619 540.240723,624.308594 
	C537.564209,622.495056 536.074097,622.681396 534.049438,625.104492 
	C523.398987,637.850830 510.481934,647.593079 495.119751,654.054626 
	C482.897461,659.195618 470.319824,662.893127 456.982605,663.237488 
	C448.424957,663.458496 444.701080,659.615662 444.611084,651.260071 
	C444.446045,635.933533 444.232483,620.607483 444.036713,605.281250 
	C443.944458,598.058044 443.195953,597.294800 435.915192,597.290039 
	C390.749969,597.260498 345.584717,597.244568 300.419495,597.225464 
	C293.753235,597.222656 287.083008,597.087830 280.422089,597.276794 
	C275.916565,597.404602 273.888123,600.260864 274.869843,604.660889 
	C275.339905,606.767761 276.024750,608.831848 276.695190,610.888245 
	C285.626251,638.282837 298.935638,663.346558 317.530518,685.377380 
	C372.330841,750.303711 441.495605,781.651611 526.802063,771.490784 
	C569.647400,766.387390 604.048401,743.994385 632.482361,710.998169 
M660.289062,487.197540 
	C643.510010,466.705475 622.616150,452.299133 597.496033,443.705872 
	C579.230225,437.457428 560.622131,434.847748 541.474976,436.676056 
	C521.909058,438.544342 504.066101,445.814880 487.038849,455.253082 
	C480.462799,458.898132 474.319977,463.220551 469.214417,468.795135 
	C466.477509,471.783508 467.494690,475.390533 471.298492,476.571686 
	C472.846741,477.052429 474.590302,477.028931 476.244415,477.024353 
	C489.906433,476.986664 503.577576,477.181396 517.227112,476.732117 
	C526.942261,476.412323 534.314331,480.173737 540.153381,487.569916 
	C543.147034,491.361908 545.964294,495.269714 548.322083,499.515350 
	C566.654541,532.527039 566.850708,566.118164 551.661987,600.233093 
	C548.069946,608.301147 548.083191,608.306946 555.227905,613.326355 
	C555.773193,613.709473 556.305664,614.112122 556.863342,614.476318 
	C581.962402,630.868713 607.090149,647.217407 632.124878,663.707336 
	C634.732788,665.425171 636.199890,665.604736 638.211426,662.907288 
	C648.884583,648.594971 654.442017,632.427185 655.627625,614.773010 
	C656.946655,595.132324 653.470398,576.301514 644.559387,558.666748 
	C642.588196,554.765686 643.288635,552.994690 647.169495,551.050781 
	C658.781067,545.234497 670.111633,538.859192 681.694763,532.983643 
	C685.780457,530.911194 686.755493,528.851929 684.660156,524.496033 
	C678.259399,511.190094 670.290588,498.970062 660.289062,487.197540 
M263.787354,514.147217 
	C262.389404,533.972595 262.319855,553.702087 267.307983,573.167175 
	C268.331940,577.162842 270.011841,578.813965 274.438385,578.787476 
	C307.417877,578.589722 340.399139,578.688171 373.379761,578.643066 
	C375.287781,578.640442 377.376160,579.197815 379.064453,577.747131 
	C379.272980,575.845154 378.142090,574.493713 377.396271,573.063171 
	C367.251068,553.603699 361.547882,533.027588 360.415710,511.017273 
	C359.840088,499.826172 361.298218,501.157654 349.961304,501.197266 
	C324.034485,501.287842 299.358459,496.457947 276.665741,483.324402 
	C272.703522,481.031250 270.713287,481.814789 269.244812,486.405182 
	C266.451721,495.136139 264.671936,504.095490 263.787354,514.147217 
M543.177551,337.333954 
	C564.560547,355.512299 597.022217,352.891876 618.172241,338.116333 
	C619.781250,336.992279 620.862305,335.753937 620.848877,333.665039 
	C620.734375,315.837036 621.700867,297.926666 620.306702,280.201141 
	C618.497375,257.197510 599.775879,240.601318 575.716614,238.476593 
	C553.964294,236.555603 529.847046,252.171112 524.373108,272.906738 
	C517.867126,297.551544 523.282349,319.339996 543.177551,337.333954 
M490.068817,348.294098 
	C486.237579,342.600677 486.432983,335.995819 485.716003,329.563507 
	C484.671265,320.190857 484.937134,319.731018 493.895020,319.277649 
	C494.769196,316.548218 493.770264,313.742310 493.923737,310.967682 
	C494.440155,301.630524 493.329498,292.337738 493.009857,283.022614 
	C492.930695,280.714417 493.029510,277.821320 490.515259,276.940735 
	C487.801208,275.990143 486.163147,278.750641 485.168823,280.552521 
	C481.555206,287.100891 478.506866,294.036682 479.105652,301.719543 
	C479.730804,309.741119 477.935455,316.880463 473.264648,323.381805 
	C472.603882,324.301575 472.211365,325.446259 471.839417,326.536194 
	C468.960754,334.971039 467.816010,343.628845 468.008820,352.556610 
	C468.472748,374.034088 467.316132,395.541321 468.922028,416.994049 
	C469.467377,424.278778 472.845276,425.711395 479.137177,421.757141 
	C480.636841,420.814667 481.922974,419.366699 482.976654,417.911743 
	C486.028534,413.697479 486.901886,408.787048 486.965729,403.711578 
	C487.034912,398.214996 486.782776,392.706024 487.066528,387.222961 
	C487.308655,382.543304 488.653778,378.491791 494.126465,377.017548 
	C498.374939,375.873138 500.096954,372.287811 499.984802,368.117767 
	C499.775177,360.319397 497.745941,353.281952 490.068817,348.294098 
M648.906982,293.647491 
	C644.712585,295.313416 642.723999,298.358856 642.905518,302.909760 
	C643.024719,305.896545 642.852783,308.894043 642.935730,311.883301 
	C643.103943,317.948120 650.204834,323.922455 656.130249,322.457855 
	C667.072449,319.753235 677.878662,316.502991 688.787598,313.656738 
	C692.313293,312.736908 694.320007,311.044891 693.841797,306.373016 
	C678.963257,303.228210 665.682129,293.915192 648.906982,293.647491 
z"/>
<path fill="#000000" opacity="1.000000" stroke="none" 
	d="
M397.009949,366.270966 
	C401.418488,374.127441 396.749634,383.476196 389.747284,385.908386 
	C382.285370,388.500244 375.072876,384.897949 372.398468,377.021576 
	C370.341553,370.963776 373.126587,363.700806 378.659088,360.694824 
	C385.053101,357.220734 391.816132,359.171570 397.009949,366.270966 
z"/>
<path fill="#000000" opacity="1.000000" stroke="none" 
	d="
M416.839905,303.884796 
	C422.875305,308.618622 424.793579,314.392822 422.570465,320.286560 
	C420.367157,326.127747 415.490356,329.500397 409.544342,329.295044 
	C404.001587,329.103577 398.893433,324.985107 397.229034,319.213074 
	C395.683899,313.854614 397.377991,309.207581 401.237701,305.570618 
	C405.717499,301.349396 410.998627,300.958862 416.839905,303.884796 
z"/>
<path fill="#000000" opacity="1.000000" stroke="none" 
	d="
M397.978394,440.068665 
	C393.663971,434.916931 393.809448,429.133026 398.007324,426.375824 
	C401.991486,423.759033 407.453888,425.262512 409.973145,429.719574 
	C411.810150,432.969604 411.678406,436.182953 409.071594,438.906738 
	C405.938354,442.180664 402.266571,442.798462 397.978394,440.068665 
z"/>
<path fill="#000000" opacity="1.000000" stroke="none" 
	d="
M585.232422,275.117493 
	C589.846191,285.629333 586.270752,294.901520 576.660828,298.177582 
	C567.441528,301.320404 558.642334,296.232086 556.186096,286.337616 
	C554.505249,279.566589 558.396606,271.950134 565.199829,268.695435 
	C572.676697,265.118469 579.379578,267.172028 585.232422,275.117493 
z"/>
</svg>