<?xml version="1.0" standalone="no"?>
<!DOCTYPE svg PUBLIC "-//W3C//DTD SVG 20010904//EN"
 "http://www.w3.org/TR/2001/REC-SVG-20010904/DTD/svg10.dtd">
<svg version="1.0" xmlns="http://www.w3.org/2000/svg"
 width="300.000000pt" height="300.000000pt" viewBox="0 0 300.000000 300.000000"
 preserveAspectRatio="xMidYMid meet">
<metadata>
Created by potrace 1.10, written by Peter Selinger 2001-2011
</metadata>
<g transform="translate(0.000000,300.000000) scale(0.100000,-0.100000)"
fill="#000000" stroke="none">
<path d="M1563 2390 c-90 -19 -176 -89 -226 -185 l-32 -60 -5 -270 -5 -270
-149 -3 c-224 -4 -316 29 -416 147 -43 51 -66 61 -88 39 -26 -26 -7 -189 33
-268 17 -34 24 -69 28 -141 15 -275 196 -534 454 -650 113 -52 221 -72 358
-66 144 6 209 22 335 84 81 40 109 60 190 142 137 137 195 255 221 446 12 92
4 125 -31 125 -27 0 -40 -30 -40 -92 0 -82 -27 -174 -75 -265 -33 -62 -40 -83
-29 -83 21 0 16 -11 -25 -62 -73 -92 -199 -178 -315 -218 -91 -31 -110 -25
-41 13 70 38 173 131 200 180 12 24 28 37 47 41 20 4 37 19 56 50 28 47 42 57
42 31 0 -24 17 -17 28 13 25 62 35 122 35 207 1 141 -33 226 -146 369 -85 109
-102 138 -117 198 -15 57 0 111 35 134 13 9 79 31 147 50 187 52 190 78 20
137 -107 37 -113 41 -183 112 -100 103 -195 138 -306 115z m71 -39 c3 -5 -8
-14 -25 -22 -18 -7 -45 -24 -62 -38 -17 -14 -33 -24 -36 -22 -14 10 -41 -68
-41 -119 1 -109 71 -198 174 -220 31 -6 64 -9 73 -7 10 3 29 8 43 11 l26 5 -4
-65 c-4 -57 -1 -72 26 -127 17 -34 60 -96 96 -137 129 -148 170 -292 131 -458
-16 -68 -45 -131 -68 -151 -12 -10 -46 9 -190 103 l-176 115 20 50 c28 74 26
171 -5 238 -40 86 -52 93 -155 93 -88 0 -115 10 -93 32 8 8 8 17 1 31 -7 12
-10 95 -7 231 3 195 6 215 27 263 13 29 43 70 66 92 42 39 49 56 17 44 -27
-11 -3 16 31 34 53 28 121 40 131 24z m106 -63 c63 -33 80 -71 80 -184 l0 -91
-39 -17 c-77 -35 -179 -15 -220 43 -66 92 -41 209 53 252 53 24 73 24 126 -3z
m166 -127 c14 -11 55 -30 92 -42 37 -12 63 -24 57 -26 -5 -1 -47 -14 -92 -27
l-81 -23 -4 68 c-2 38 -1 69 0 69 2 0 15 -9 28 -19z m-1167 -474 c28 -26 51
-51 51 -56 0 -4 -9 -16 -20 -26 -11 -10 -23 -36 -26 -57 -4 -21 -10 -38 -15
-38 -5 0 -18 19 -30 41 -23 46 -40 195 -22 188 6 -2 34 -26 62 -52z m151 -131
c30 -9 79 -16 110 -16 l57 0 5 -67 c5 -69 40 -159 58 -148 5 3 2 24 -6 48 -8
23 -19 62 -24 87 -5 25 -12 53 -15 63 -7 16 6 17 226 15 l234 -3 23 -45 c24
-49 29 -128 12 -192 -18 -62 -68 -118 -140 -154 -80 -41 -90 -42 -89 -6 0 26
1 26 9 5 5 -13 11 -23 12 -23 6 0 -4 165 -10 172 -4 4 -133 10 -287 13 -154 4
-282 9 -284 11 -19 19 -15 243 4 275 5 7 15 5 29 -5 12 -8 47 -21 76 -30z
m468 32 c23 -23 13 -38 -23 -38 -22 0 -35 5 -35 13 0 16 20 37 35 37 6 0 16
-5 23 -12z m-14 -321 c15 -24 -2 -34 -19 -11 -8 10 -15 23 -15 27 0 13 22 3
34 -16z m-46 -104 c3 -88 4 -93 26 -99 50 -12 150 28 208 84 l37 35 160 -108
160 -108 -19 -28 c-35 -48 -122 -120 -183 -151 -302 -152 -714 28 -862 375
-15 36 -25 73 -22 82 6 13 36 15 249 13 l243 -3 3 -92z"/>
<path d="M1550 1753 c-19 -2 -39 -8 -45 -13 -5 -4 -26 -13 -46 -19 -34 -11
-88 -56 -78 -65 3 -3 35 10 71 29 115 57 236 56 360 -5 l43 -21 -35 30 c-56
49 -175 77 -270 64z"/>
<path d="M1645 1549 c4 -5 13 -9 20 -9 34 0 124 -51 165 -93 24 -26 46 -44 48
-42 7 7 -38 70 -57 81 -89 50 -190 86 -176 63z"/>
<path d="M1940 1411 c-30 -14 -56 -26 -58 -27 -2 -1 4 -17 14 -36 28 -51 26
-189 -3 -247 -24 -48 -24 -55 0 -46 45 18 72 175 46 269 -11 39 -10 40 28 72
21 18 36 34 33 37 -3 3 -30 -7 -60 -22z"/>
<path d="M1642 2208 c-29 -29 -7 -78 35 -78 35 0 52 43 28 70 -20 23 -45 26
-63 8z"/>
<path d="M1263 1024 c-40 -104 -65 -184 -61 -195 2 -7 21 35 42 94 21 58 36
112 34 118 -2 7 -9 -1 -15 -17z"/>
<path d="M1178 2109 c-33 -19 -15 -69 24 -69 15 0 38 27 38 44 0 7 -31 36 -38
36 -4 0 -15 -5 -24 -11z"/>
<path d="M956 2022 c-61 -63 -117 -136 -147 -194 -30 -59 -22 -58 11 1 39 70
71 112 144 189 32 34 57 62 54 62 -3 0 -30 -26 -62 -58z"/>
<path d="M2066 1968 c5 -7 23 -34 42 -61 19 -26 49 -78 68 -115 19 -37 34 -61
34 -53 0 28 -130 241 -147 241 -2 0 -1 -6 3 -12z"/>
<path d="M1100 1935 c-26 -31 13 -82 44 -56 21 17 21 57 0 65 -23 9 -30 8 -44
-9z"/>
<path d="M1156 1744 c-4 -10 -2 -22 3 -27 14 -14 43 0 39 20 -4 24 -34 28 -42
7z"/>
<path d="M2229 1665 c9 -29 18 -52 20 -50 5 6 -20 95 -29 100 -4 2 0 -20 9
-50z"/>
</g>
</svg>
